<svg xmlns="http://www.w3.org/2000/svg" width="960" height="420" viewBox="0 0 960 420">
<style>
text{font-family:Arial,Helvetica,sans-serif;fill:#202124}
.axis{stroke:#5f6368;stroke-width:1}
.grid{stroke:#e8eaed;stroke-width:1}
.actual{fill:none;stroke:#1967d2;stroke-width:2.2}
.predicted{fill:none;stroke:#d93025;stroke-width:2.2;stroke-dasharray:6 4}
</style>
<text x="72" y="26" font-size="18" font-weight="700">SNOW: 2016-01-01 to 2016-12-31 actual vs ridge forecast</text>
<text x="20" y="205" font-size="12" transform="rotate(-90 20,205)">Snowfall (inches)</text>
<line class="axis" x1="72" y1="366" x2="936" y2="366"/>
<line class="axis" x1="72" y1="44" x2="72" y2="366"/>
<line class="grid" x1="72" y1="366.00" x2="936" y2="366.00"/>
<text x="62" y="370.00" text-anchor="end" font-size="11">-0.68</text>
<line class="grid" x1="72" y1="285.50" x2="936" y2="285.50"/>
<text x="62" y="289.50" text-anchor="end" font-size="11">1.78</text>
<line class="grid" x1="72" y1="205.00" x2="936" y2="205.00"/>
<text x="62" y="209.00" text-anchor="end" font-size="11">4.25</text>
<line class="grid" x1="72" y1="124.50" x2="936" y2="124.50"/>
<text x="62" y="128.50" text-anchor="end" font-size="11">6.71</text>
<line class="grid" x1="72" y1="44.00" x2="936" y2="44.00"/>
<text x="62" y="48.00" text-anchor="end" font-size="11">9.18</text>
<line class="grid" x1="72.00" y1="44" x2="72.00" y2="366"/>
<text x="72.00" y="400" text-anchor="middle" font-size="11">Jan 01</text>
<line class="grid" x1="244.80" y1="44" x2="244.80" y2="366"/>
<text x="244.80" y="400" text-anchor="middle" font-size="11">Mar 14</text>
<line class="grid" x1="417.60" y1="44" x2="417.60" y2="366"/>
<text x="417.60" y="400" text-anchor="middle" font-size="11">May 26</text>
<line class="grid" x1="590.40" y1="44" x2="590.40" y2="366"/>
<text x="590.40" y="400" text-anchor="middle" font-size="11">Aug 07</text>
<line class="grid" x1="763.20" y1="44" x2="763.20" y2="366"/>
<text x="763.20" y="400" text-anchor="middle" font-size="11">Oct 19</text>
<line class="grid" x1="936.00" y1="44" x2="936.00" y2="366"/>
<text x="936.00" y="400" text-anchor="middle" font-size="11">Dec 31</text>
<polyline class="actual" points="72.00,343.79 74.37,343.79 76.73,343.79 79.10,343.79 81.47,343.79 83.84,343.79 86.20,343.79 88.57,343.79 90.94,343.79 93.30,343.79 95.67,343.79 98.04,330.73 100.41,343.79 102.77,343.79 105.14,343.79 107.51,343.79 109.87,311.14 112.24,249.09 114.61,343.79 116.98,343.79 119.34,343.79 121.71,343.79 124.08,245.82 126.44,343.79 128.81,343.79 131.18,343.79 133.55,343.79 135.91,343.79 138.28,343.79 140.65,343.79 143.01,343.79 145.38,343.79 147.75,343.79 150.12,343.79 152.48,343.79 154.85,66.21 157.22,343.79 159.58,343.79 161.95,180.51 164.32,337.26 166.68,340.53 169.05,343.79 171.42,343.79 173.79,343.79 176.15,343.79 178.52,278.48 180.89,343.79 183.25,343.79 185.62,343.79 187.99,343.79 190.36,343.79 192.72,343.79 195.09,343.79 197.46,343.79 199.82,343.79 202.19,343.79 204.56,343.79 206.93,343.79 209.29,343.79 211.66,343.79 214.03,343.79 216.39,343.79 218.76,343.79 221.13,334.00 223.50,343.79 225.86,343.79 228.23,343.79 230.60,343.79 232.96,343.79 235.33,343.79 237.70,343.79 240.07,343.79 242.43,343.79 244.80,343.79 247.17,343.79 249.53,343.79 251.90,343.79 254.27,343.79 256.64,343.79 259.00,340.53 261.37,180.51 263.74,343.79 266.10,343.79 268.47,343.79 270.84,343.79 273.21,343.79 275.57,343.79 277.94,343.79 280.31,343.79 282.67,343.79 285.04,343.79 287.41,343.79 289.78,343.79 292.14,307.87 294.51,187.04 296.88,343.79 299.24,343.79 301.61,343.79 303.98,343.79 306.35,343.79 308.71,343.79 311.08,343.79 313.45,343.79 315.81,343.79 318.18,343.79 320.55,343.79 322.92,343.79 325.28,343.79 327.65,343.79 330.02,343.79 332.38,343.79 334.75,343.79 337.12,343.79 339.48,343.79 341.85,343.79 344.22,343.79 346.59,343.79 348.95,343.79 351.32,343.79 353.69,343.79 356.05,343.79 358.42,343.79 360.79,343.79 363.16,343.79 365.52,343.79 367.89,343.79 370.26,343.79 372.62,343.79 374.99,343.79 377.36,343.79 379.73,343.79 382.09,343.79 384.46,343.79 386.83,343.79 389.19,343.79 391.56,343.79 393.93,343.79 396.30,343.79 398.66,343.79 401.03,343.79 403.40,343.79 405.76,343.79 408.13,343.79 410.50,343.79 412.87,343.79 415.23,343.79 417.60,343.79 419.97,343.79 422.33,343.79 424.70,343.79 427.07,343.79 429.44,343.79 431.80,343.79 434.17,343.79 436.54,343.79 438.90,343.79 441.27,343.79 443.64,343.79 446.01,343.79 448.37,343.79 450.74,343.79 453.11,343.79 455.47,343.79 457.84,343.79 460.21,343.79 462.58,343.79 464.94,343.79 467.31,343.79 469.68,343.79 472.04,343.79 474.41,343.79 476.78,343.79 479.15,343.79 481.51,343.79 483.88,343.79 486.25,343.79 488.61,343.79 490.98,343.79 493.35,343.79 495.72,343.79 498.08,343.79 500.45,343.79 502.82,343.79 505.18,343.79 507.55,343.79 509.92,343.79 512.28,343.79 514.65,343.79 517.02,343.79 519.39,343.79 521.75,343.79 524.12,343.79 526.49,343.79 528.85,343.79 531.22,343.79 533.59,343.79 535.96,343.79 538.32,343.79 540.69,343.79 543.06,343.79 545.42,343.79 547.79,343.79 550.16,343.79 552.53,343.79 554.89,343.79 557.26,343.79 559.63,343.79 561.99,343.79 564.36,343.79 566.73,343.79 569.10,343.79 571.46,343.79 573.83,343.79 576.20,343.79 578.56,343.79 580.93,343.79 583.30,343.79 585.67,343.79 588.03,343.79 590.40,343.79 592.77,343.79 595.13,343.79 597.50,343.79 599.87,343.79 602.24,343.79 604.60,343.79 606.97,343.79 609.34,343.79 611.70,343.79 614.07,343.79 616.44,343.79 618.81,343.79 621.17,343.79 623.54,343.79 625.91,343.79 628.27,343.79 630.64,343.79 633.01,343.79 635.38,343.79 637.74,343.79 640.11,343.79 642.48,343.79 644.84,343.79 647.21,343.79 649.58,343.79 651.95,343.79 654.31,343.79 656.68,343.79 659.05,343.79 661.41,343.79 663.78,343.79 666.15,343.79 668.52,343.79 670.88,343.79 673.25,343.79 675.62,343.79 677.98,343.79 680.35,343.79 682.72,343.79 685.08,343.79 687.45,343.79 689.82,343.79 692.19,343.79 694.55,343.79 696.92,343.79 699.29,343.79 701.65,343.79 704.02,343.79 706.39,343.79 708.76,343.79 711.12,343.79 713.49,343.79 715.86,343.79 718.22,343.79 720.59,343.79 722.96,343.79 725.33,343.79 727.69,343.79 730.06,343.79 732.43,343.79 734.79,343.79 737.16,343.79 739.53,343.79 741.90,343.79 744.26,343.79 746.63,343.79 749.00,343.79 751.36,343.79 753.73,343.79 756.10,343.79 758.47,343.79 760.83,343.79 763.20,343.79 765.57,343.79 767.93,343.79 770.30,343.79 772.67,343.79 775.04,343.79 777.40,343.79 779.77,343.79 782.14,343.79 784.50,343.79 786.87,343.79 789.24,343.79 791.61,343.79 793.97,343.79 796.34,343.79 798.71,343.79 801.07,343.79 803.44,343.79 805.81,343.79 808.18,343.79 810.54,343.79 812.91,343.79 815.28,343.79 817.64,343.79 820.01,343.79 822.38,343.79 824.75,343.79 827.11,343.79 829.48,343.79 831.85,343.79 834.21,343.79 836.58,343.79 838.95,343.79 841.32,343.79 843.68,343.79 846.05,343.79 848.42,343.79 850.78,343.79 853.15,343.79 855.52,343.79 857.88,343.79 860.25,343.79 862.62,343.79 864.99,343.79 867.35,343.79 869.72,343.79 872.09,343.79 874.45,343.79 876.82,324.20 879.19,343.79 881.56,343.79 883.92,343.79 886.29,343.79 888.66,343.79 891.02,288.28 893.39,343.79 895.76,343.79 898.13,343.79 900.49,343.79 902.86,304.60 905.23,236.02 907.59,343.79 909.96,343.79 912.33,343.79 914.70,343.79 917.06,340.53 919.43,343.79 921.80,343.79 924.16,343.79 926.53,343.79 928.90,343.79 931.27,343.79 933.63,294.81 936.00,343.79"/>
<polyline class="predicted" points="72.00,327.44 74.37,327.38 76.73,327.23 79.10,325.93 81.47,318.29 83.84,318.34 86.20,325.34 88.57,318.33 90.94,325.50 93.30,323.11 95.67,327.05 98.04,320.38 100.41,319.79 102.77,319.42 105.14,320.59 107.51,324.80 109.87,327.82 112.24,318.72 114.61,307.71 116.98,313.85 119.34,315.30 121.71,313.44 124.08,313.12 126.44,299.26 128.81,310.72 131.18,318.63 133.55,324.03 135.91,321.87 138.28,317.77 140.65,318.54 143.01,322.34 145.38,322.99 147.75,322.74 150.12,325.59 152.48,332.78 154.85,324.67 157.22,289.76 159.58,314.23 161.95,316.22 164.32,292.34 166.68,308.92 169.05,312.39 171.42,304.29 173.79,316.15 176.15,303.91 178.52,305.72 180.89,310.77 183.25,327.16 185.62,321.93 187.99,319.56 190.36,321.89 192.72,328.35 195.09,326.12 197.46,326.40 199.82,323.61 202.19,330.13 204.56,326.32 206.93,322.71 209.29,323.60 211.66,327.96 214.03,327.46 216.39,328.29 218.76,322.13 221.13,317.33 223.50,320.26 225.86,329.79 228.23,325.53 230.60,325.80 232.96,332.78 235.33,339.54 237.70,331.55 240.07,333.27 242.43,335.37 244.80,341.08 247.17,337.61 249.53,336.75 251.90,335.43 254.27,335.93 256.64,333.31 259.00,329.91 261.37,326.36 263.74,310.67 266.10,330.24 268.47,330.45 270.84,321.67 273.21,329.45 275.57,328.44 277.94,327.48 280.31,332.97 282.67,330.91 285.04,335.05 287.41,343.79 289.78,342.71 292.14,337.57 294.51,329.65 296.88,314.25 299.24,327.89 301.61,334.02 303.98,331.48 306.35,332.72 308.71,332.40 311.08,331.62 313.45,341.79 315.81,338.15 318.18,339.98 320.55,334.26 322.92,334.81 325.28,338.35 327.65,342.08 330.02,342.82 332.38,343.79 334.75,338.67 337.12,343.76 339.48,343.79 341.85,341.65 344.22,341.29 346.59,342.88 348.95,338.46 351.32,343.29 353.69,342.52 356.05,335.35 358.42,337.58 360.79,343.14 363.16,343.79 365.52,343.79 367.89,343.79 370.26,342.10 372.62,343.79 374.99,343.79 377.36,343.79 379.73,342.88 382.09,339.40 384.46,343.79 386.83,343.79 389.19,343.79 391.56,343.79 393.93,343.79 396.30,341.01 398.66,342.69 401.03,342.14 403.40,343.56 405.76,339.94 408.13,340.55 410.50,343.67 412.87,343.31 415.23,342.91 417.60,343.79 419.97,343.79 422.33,343.79 424.70,343.79 427.07,343.79 429.44,343.67 431.80,343.79 434.17,343.79 436.54,343.70 438.90,343.79 441.27,343.79 443.64,343.79 446.01,343.79 448.37,343.79 450.74,343.79 453.11,342.39 455.47,343.14 457.84,341.70 460.21,343.79 462.58,342.00 464.94,342.78 467.31,342.77 469.68,342.37 472.04,340.23 474.41,341.28 476.78,340.46 479.15,340.80 481.51,343.79 483.88,340.33 486.25,339.92 488.61,337.74 490.98,337.34 493.35,336.73 495.72,340.68 498.08,341.80 500.45,338.81 502.82,339.17 505.18,339.96 507.55,339.12 509.92,338.08 512.28,338.53 514.65,341.08 517.02,339.19 519.39,339.86 521.75,339.96 524.12,337.93 526.49,338.05 528.85,336.05 531.22,337.50 533.59,340.35 535.96,339.35 538.32,340.51 540.69,340.50 543.06,341.73 545.42,339.31 547.79,339.36 550.16,334.84 552.53,337.56 554.89,341.32 557.26,341.15 559.63,339.13 561.99,337.90 564.36,339.17 566.73,336.86 569.10,336.73 571.46,339.41 573.83,336.63 576.20,338.45 578.56,338.73 580.93,337.71 583.30,334.35 585.67,335.74 588.03,336.38 590.40,340.34 592.77,337.91 595.13,338.48 597.50,335.23 599.87,339.99 602.24,340.00 604.60,342.61 606.97,339.11 609.34,341.18 611.70,340.86 614.07,340.40 616.44,343.79 618.81,341.51 621.17,341.88 623.54,338.55 625.91,337.45 628.27,339.92 630.64,338.09 633.01,337.92 635.38,341.78 637.74,343.50 640.11,339.83 642.48,341.71 644.84,342.97 647.21,338.56 649.58,342.41 651.95,343.79 654.31,341.02 656.68,339.35 659.05,337.26 661.41,339.33 663.78,342.55 666.15,343.79 668.52,343.79 670.88,343.79 673.25,342.14 675.62,343.79 677.98,338.43 680.35,339.02 682.72,343.79 685.08,337.59 687.45,339.63 689.82,339.98 692.19,343.79 694.55,343.79 696.92,343.79 699.29,343.79 701.65,343.35 704.02,343.79 706.39,341.71 708.76,341.70 711.12,340.61 713.49,343.79 715.86,343.79 718.22,343.79 720.59,342.81 722.96,343.79 725.33,343.79 727.69,343.79 730.06,343.79 732.43,342.83 734.79,340.85 737.16,342.98 739.53,341.23 741.90,343.79 744.26,341.08 746.63,343.79 749.00,343.79 751.36,343.79 753.73,343.79 756.10,343.79 758.47,343.79 760.83,343.79 763.20,343.79 765.57,343.79 767.93,343.79 770.30,343.79 772.67,343.79 775.04,343.79 777.40,343.79 779.77,343.79 782.14,343.79 784.50,343.43 786.87,343.79 789.24,343.79 791.61,343.79 793.97,343.79 796.34,342.99 798.71,343.79 801.07,343.79 803.44,343.79 805.81,343.79 808.18,343.79 810.54,340.09 812.91,343.79 815.28,343.79 817.64,342.59 820.01,343.79 822.38,342.00 824.75,343.79 827.11,341.74 829.48,341.03 831.85,343.79 834.21,342.26 836.58,343.07 838.95,339.99 841.32,343.79 843.68,340.38 846.05,339.22 848.42,340.03 850.78,339.78 853.15,342.76 855.52,339.93 857.88,337.53 860.25,332.24 862.62,336.30 864.99,340.43 867.35,340.17 869.72,337.52 872.09,338.94 874.45,339.88 876.82,335.46 879.19,335.21 881.56,340.06 883.92,333.76 886.29,334.33 888.66,326.84 891.02,327.01 893.39,325.98 895.76,332.14 898.13,330.12 900.49,328.17 902.86,317.33 905.23,321.03 907.59,320.52 909.96,320.67 912.33,321.86 914.70,325.99 917.06,325.50 919.43,324.88 921.80,327.01 924.16,327.70 926.53,323.21 928.90,336.91 931.27,329.45 933.63,324.28 936.00,321.96"/>
<line x1="735" y1="24" x2="775" y2="24" class="actual"/>
<text x="782" y="28" font-size="12">Actual</text>
<line x1="835" y1="24" x2="875" y2="24" class="predicted"/>
<text x="882" y="28" font-size="12">Predicted</text>
</svg>