<svg xmlns="http://www.w3.org/2000/svg" width="960" height="420" viewBox="0 0 960 420">
<style>
text{font-family:Arial,Helvetica,sans-serif;fill:#202124}
.axis{stroke:#5f6368;stroke-width:1}
.grid{stroke:#e8eaed;stroke-width:1}
.actual{fill:none;stroke:#1967d2;stroke-width:2.2}
.predicted{fill:none;stroke:#d93025;stroke-width:2.2;stroke-dasharray:6 4}
</style>
<text x="72" y="26" font-size="18" font-weight="700">TOBS: 2016-01-01 to 2016-12-31 actual vs ridge forecast</text>
<text x="20" y="205" font-size="12" transform="rotate(-90 20,205)">Observed temperature (F)</text>
<line class="axis" x1="72" y1="366" x2="936" y2="366"/>
<line class="axis" x1="72" y1="44" x2="72" y2="366"/>
<line class="grid" x1="72" y1="366.00" x2="936" y2="366.00"/>
<text x="62" y="370.00" text-anchor="end" font-size="11">-13.88</text>
<line class="grid" x1="72" y1="285.50" x2="936" y2="285.50"/>
<text x="62" y="289.50" text-anchor="end" font-size="11">11.06</text>
<line class="grid" x1="72" y1="205.00" x2="936" y2="205.00"/>
<text x="62" y="209.00" text-anchor="end" font-size="11">36.00</text>
<line class="grid" x1="72" y1="124.50" x2="936" y2="124.50"/>
<text x="62" y="128.50" text-anchor="end" font-size="11">60.94</text>
<line class="grid" x1="72" y1="44.00" x2="936" y2="44.00"/>
<text x="62" y="48.00" text-anchor="end" font-size="11">85.88</text>
<line class="grid" x1="72.00" y1="44" x2="72.00" y2="366"/>
<text x="72.00" y="400" text-anchor="middle" font-size="11">Jan 01</text>
<line class="grid" x1="244.80" y1="44" x2="244.80" y2="366"/>
<text x="244.80" y="400" text-anchor="middle" font-size="11">Mar 14</text>
<line class="grid" x1="417.60" y1="44" x2="417.60" y2="366"/>
<text x="417.60" y="400" text-anchor="middle" font-size="11">May 26</text>
<line class="grid" x1="590.40" y1="44" x2="590.40" y2="366"/>
<text x="590.40" y="400" text-anchor="middle" font-size="11">Aug 07</text>
<line class="grid" x1="763.20" y1="44" x2="763.20" y2="366"/>
<text x="763.20" y="400" text-anchor="middle" font-size="11">Oct 19</text>
<line class="grid" x1="936.00" y1="44" x2="936.00" y2="366"/>
<text x="936.00" y="400" text-anchor="middle" font-size="11">Dec 31</text>
<polyline class="actual" points="72.00,224.37 74.37,217.91 76.73,234.05 79.10,288.92 81.47,276.01 83.84,217.91 86.20,256.64 88.57,201.77 90.94,205.00 93.30,163.04 95.67,250.19 98.04,234.05 100.41,256.64 102.77,263.10 105.14,205.00 107.51,214.68 109.87,234.05 112.24,269.55 114.61,263.10 116.98,240.51 119.34,259.87 121.71,256.64 124.08,253.42 126.44,246.96 128.81,234.05 131.18,185.63 133.55,230.82 135.91,224.37 138.28,198.54 140.65,198.54 143.01,188.86 145.38,208.23 147.75,211.46 150.12,133.99 152.48,179.18 154.85,240.51 157.22,230.82 159.58,211.46 161.95,259.87 164.32,279.24 166.68,230.82 169.05,288.92 171.42,259.87 173.79,343.79 176.15,321.20 178.52,246.96 180.89,192.09 183.25,230.82 185.62,243.73 187.99,224.37 190.36,163.04 192.72,198.54 195.09,208.23 197.46,211.46 199.82,117.85 202.19,198.54 204.56,243.73 206.93,214.68 209.29,172.72 211.66,172.72 214.03,195.32 216.39,246.96 218.76,240.51 221.13,234.05 223.50,234.05 225.86,227.59 228.23,211.46 230.60,192.09 232.96,111.40 235.33,163.04 237.70,198.54 240.07,163.04 242.43,169.49 244.80,195.32 247.17,185.63 249.53,172.72 251.90,169.49 254.27,211.46 256.64,234.05 259.00,224.37 261.37,230.82 263.74,185.63 266.10,188.86 268.47,214.68 270.84,188.86 273.21,227.59 275.57,201.77 277.94,182.41 280.31,211.46 282.67,185.63 285.04,114.62 287.41,140.45 289.78,195.32 292.14,243.73 294.51,240.51 296.88,250.19 299.24,188.86 301.61,166.27 303.98,208.23 306.35,214.68 308.71,188.86 311.08,143.67 313.45,211.46 315.81,214.68 318.18,214.68 320.55,208.23 322.92,205.00 325.28,192.09 327.65,172.72 330.02,179.18 332.38,182.41 334.75,137.22 337.12,127.53 339.48,169.49 341.85,201.77 344.22,169.49 346.59,211.46 348.95,182.41 351.32,175.95 353.69,192.09 356.05,182.41 358.42,172.72 360.79,172.72 363.16,172.72 365.52,169.49 367.89,179.18 370.26,166.27 372.62,169.49 374.99,159.81 377.36,179.18 379.73,175.95 382.09,169.49 384.46,169.49 386.83,150.13 389.19,140.45 391.56,163.04 393.93,185.63 396.30,156.58 398.66,166.27 401.03,156.58 403.40,163.04 405.76,146.90 408.13,140.45 410.50,166.27 412.87,146.90 415.23,140.45 417.60,121.08 419.97,127.53 422.33,104.94 424.70,130.76 427.07,146.90 429.44,95.26 431.80,130.76 434.17,140.45 436.54,130.76 438.90,114.62 441.27,111.40 443.64,111.40 446.01,111.40 448.37,133.99 450.74,153.36 453.11,146.90 455.47,146.90 457.84,98.48 460.21,140.45 462.58,143.67 464.94,117.85 467.31,127.53 469.68,140.45 472.04,140.45 474.41,130.76 476.78,121.08 479.15,111.40 481.51,137.22 483.88,137.22 486.25,137.22 488.61,143.67 490.98,133.99 493.35,114.62 495.72,108.17 498.08,98.48 500.45,117.85 502.82,114.62 505.18,117.85 507.55,121.08 509.92,114.62 512.28,101.71 514.65,98.48 517.02,108.17 519.39,117.85 521.75,127.53 524.12,127.53 526.49,117.85 528.85,130.76 531.22,101.71 533.59,92.03 535.96,85.57 538.32,95.26 540.69,82.35 543.06,95.26 545.42,92.03 547.79,137.22 550.16,121.08 552.53,82.35 554.89,85.57 557.26,108.17 559.63,114.62 561.99,82.35 564.36,104.94 566.73,104.94 569.10,88.80 571.46,111.40 573.83,101.71 576.20,104.94 578.56,108.17 580.93,133.99 583.30,121.08 585.67,117.85 588.03,88.80 590.40,114.62 592.77,111.40 595.13,130.76 597.50,95.26 599.87,85.57 602.24,72.66 604.60,101.71 606.97,92.03 609.34,88.80 611.70,108.17 614.07,66.21 616.44,117.85 618.81,101.71 621.17,111.40 623.54,121.08 625.91,114.62 628.27,150.13 630.64,124.31 633.01,104.94 635.38,88.80 637.74,114.62 640.11,117.85 642.48,92.03 644.84,137.22 647.21,104.94 649.58,88.80 651.95,130.76 654.31,146.90 656.68,153.36 659.05,146.90 661.41,121.08 663.78,104.94 666.15,101.71 668.52,85.57 670.88,101.71 673.25,82.35 675.62,166.27 677.98,153.36 680.35,114.62 682.72,156.58 685.08,169.49 687.45,159.81 689.82,98.48 692.19,92.03 694.55,108.17 696.92,127.53 699.29,146.90 701.65,124.31 704.02,156.58 706.39,185.63 708.76,198.54 711.12,130.76 713.49,137.22 715.86,156.58 718.22,159.81 720.59,143.67 722.96,156.58 725.33,146.90 727.69,140.45 730.06,192.09 732.43,198.54 734.79,179.18 737.16,179.18 739.53,133.99 741.90,185.63 744.26,208.23 746.63,188.86 749.00,156.58 751.36,185.63 753.73,217.91 756.10,179.18 758.47,133.99 760.83,140.45 763.20,104.94 765.57,172.72 767.93,130.76 770.30,121.08 772.67,175.95 775.04,163.04 777.40,205.00 779.77,211.46 782.14,230.82 784.50,153.36 786.87,195.32 789.24,146.90 791.61,198.54 793.97,227.59 796.34,163.04 798.71,156.58 801.07,188.86 803.44,224.37 805.81,182.41 808.18,217.91 810.54,224.37 812.91,195.32 815.28,217.91 817.64,169.49 820.01,217.91 822.38,179.18 824.75,205.00 827.11,182.41 829.48,153.36 831.85,172.72 834.21,201.77 836.58,208.23 838.95,163.04 841.32,221.14 843.68,227.59 846.05,217.91 848.42,217.91 850.78,198.54 853.15,201.77 855.52,214.68 857.88,224.37 860.25,217.91 862.62,195.32 864.99,169.49 867.35,205.00 869.72,205.00 872.09,214.68 874.45,227.59 876.82,234.05 879.19,211.46 881.56,217.91 883.92,224.37 886.29,259.87 888.66,285.69 891.02,201.77 893.39,217.91 895.76,217.91 898.13,234.05 900.49,314.74 902.86,246.96 905.23,175.95 907.59,259.87 909.96,279.24 912.33,237.28 914.70,221.14 917.06,224.37 919.43,201.77 921.80,214.68 924.16,263.10 926.53,137.22 928.90,205.00 931.27,243.73 933.63,217.91 936.00,246.96"/>
<polyline class="predicted" points="72.00,216.47 74.37,223.47 76.73,220.72 79.10,229.58 81.47,250.29 83.84,244.08 86.20,219.07 88.57,236.14 90.94,212.88 93.30,214.74 95.67,212.30 98.04,239.26 100.41,231.82 102.77,242.82 105.14,244.14 107.51,219.80 109.87,224.06 112.24,234.35 114.61,253.45 116.98,245.30 119.34,236.44 121.71,243.46 124.08,239.97 126.44,248.02 128.81,241.79 131.18,236.19 133.55,213.72 135.91,233.17 138.28,230.69 140.65,219.96 143.01,218.19 145.38,213.03 147.75,219.61 150.12,223.53 152.48,189.98 154.85,205.80 157.22,255.76 159.58,229.89 161.95,222.38 164.32,257.33 166.68,251.80 169.05,232.06 171.42,262.29 173.79,245.84 176.15,280.79 178.52,277.14 180.89,247.30 183.25,219.64 185.62,237.28 187.99,240.94 190.36,235.73 192.72,207.34 195.09,215.22 197.46,217.09 199.82,220.04 202.19,182.61 204.56,216.87 206.93,231.45 209.29,219.73 211.66,201.58 214.03,201.05 216.39,205.56 218.76,235.51 221.13,229.92 223.50,227.38 225.86,215.73 228.23,222.30 230.60,215.60 232.96,201.01 235.33,171.29 237.70,196.58 240.07,209.29 242.43,191.54 244.80,194.19 247.17,204.61 249.53,201.08 251.90,190.90 254.27,190.87 256.64,206.73 259.00,216.15 261.37,211.46 263.74,222.61 266.10,192.31 268.47,192.86 270.84,204.73 273.21,196.93 275.57,212.17 277.94,201.77 280.31,192.82 282.67,201.67 285.04,191.54 287.41,160.30 289.78,171.16 292.14,193.91 294.51,215.23 296.88,222.83 299.24,215.26 301.61,185.31 303.98,184.94 306.35,199.19 308.71,203.27 311.08,192.02 313.45,170.16 315.81,198.66 318.18,195.28 320.55,195.99 322.92,193.24 325.28,191.07 327.65,183.56 330.02,176.30 332.38,172.41 334.75,178.12 337.12,157.56 339.48,153.86 341.85,170.77 344.22,183.09 346.59,168.22 348.95,189.34 351.32,172.39 353.69,167.83 356.05,174.58 358.42,172.12 360.79,167.53 363.16,167.61 365.52,164.15 367.89,165.23 370.26,170.84 372.62,164.61 374.99,164.40 377.36,158.75 379.73,164.63 382.09,161.96 384.46,159.46 386.83,158.11 389.19,148.86 391.56,144.49 393.93,153.40 396.30,162.32 398.66,148.61 401.03,152.45 403.40,147.04 405.76,147.90 408.13,141.61 410.50,140.04 412.87,149.94 415.23,141.48 417.60,141.32 419.97,129.24 422.33,130.59 424.70,120.09 427.07,131.35 429.44,138.78 431.80,113.40 434.17,128.04 436.54,131.43 438.90,126.64 441.27,119.54 443.64,117.35 446.01,121.32 448.37,117.92 450.74,128.18 453.11,134.99 455.47,131.22 457.84,130.51 460.21,106.74 462.58,125.22 464.94,127.25 467.31,115.88 469.68,119.56 472.04,124.61 474.41,123.31 476.78,119.63 479.15,115.13 481.51,113.13 483.88,121.86 486.25,122.64 488.61,121.28 490.98,123.87 493.35,118.87 495.72,109.27 498.08,109.22 500.45,104.03 502.82,111.99 505.18,110.72 507.55,113.38 509.92,112.08 512.28,108.60 514.65,104.05 517.02,102.62 519.39,106.67 521.75,110.22 524.12,114.51 526.49,115.71 528.85,108.96 531.22,115.04 533.59,102.89 535.96,98.40 538.32,96.22 540.69,99.61 543.06,93.65 545.42,99.20 547.79,96.86 550.16,116.30 552.53,109.13 554.89,92.72 557.26,93.45 559.63,103.83 561.99,106.16 564.36,93.94 566.73,102.87 569.10,101.43 571.46,94.88 573.83,105.95 576.20,105.02 578.56,103.37 580.93,105.35 583.30,116.79 585.67,110.90 588.03,110.67 590.40,96.99 592.77,108.71 595.13,108.00 597.50,117.19 599.87,101.65 602.24,107.67 604.60,92.69 606.97,107.17 609.34,105.36 611.70,102.66 614.07,110.19 616.44,88.16 618.81,111.80 621.17,105.61 623.54,108.04 625.91,113.00 628.27,115.86 630.64,127.03 633.01,118.01 635.38,109.77 637.74,103.40 640.11,114.99 642.48,115.44 644.84,106.63 647.21,125.27 649.58,110.90 651.95,104.00 654.31,123.35 656.68,130.86 659.05,132.80 661.41,132.95 663.78,122.86 666.15,115.75 668.52,115.54 670.88,111.21 673.25,116.37 675.62,108.64 677.98,144.62 680.35,137.94 682.72,121.79 685.08,139.37 687.45,147.45 689.82,143.03 692.19,120.15 694.55,118.16 696.92,127.21 699.29,135.00 701.65,143.73 704.02,133.56 706.39,151.44 708.76,160.36 711.12,166.42 713.49,140.22 715.86,144.50 718.22,151.40 720.59,152.10 722.96,151.36 725.33,159.66 727.69,149.89 730.06,147.40 732.43,171.11 734.79,174.53 737.16,165.04 739.53,164.81 741.90,147.05 744.26,182.56 746.63,186.68 749.00,178.74 751.36,163.73 753.73,177.67 756.10,190.44 758.47,170.74 760.83,152.74 763.20,156.58 765.57,140.08 767.93,170.81 770.30,155.94 772.67,162.71 775.04,178.54 777.40,171.18 779.77,188.90 782.14,194.21 784.50,201.33 786.87,175.38 789.24,189.87 791.61,168.02 793.97,193.47 796.34,205.71 798.71,178.80 801.07,169.59 803.44,185.98 805.81,199.63 808.18,184.21 810.54,200.42 812.91,205.01 815.28,190.60 817.64,201.74 820.01,181.90 822.38,202.04 824.75,187.55 827.11,198.48 829.48,187.09 831.85,188.03 834.21,185.08 836.58,201.40 838.95,202.73 841.32,188.07 843.68,211.31 846.05,208.32 848.42,207.64 850.78,209.32 853.15,202.57 855.52,203.61 857.88,210.54 860.25,214.23 862.62,212.61 864.99,207.45 867.35,204.74 869.72,210.05 872.09,211.62 874.45,217.08 876.82,222.05 879.19,225.65 881.56,209.06 883.92,214.29 886.29,217.66 888.66,233.07 891.02,246.44 893.39,214.95 895.76,218.05 898.13,217.30 900.49,227.03 902.86,262.59 905.23,238.23 907.59,211.48 909.96,238.69 912.33,248.88 914.70,231.85 917.06,227.89 919.43,227.40 921.80,214.40 924.16,225.27 926.53,245.07 928.90,189.03 931.27,217.29 933.63,234.85 936.00,238.93"/>
<line x1="735" y1="24" x2="775" y2="24" class="actual"/>
<text x="782" y="28" font-size="12">Actual</text>
<line x1="835" y1="24" x2="875" y2="24" class="predicted"/>
<text x="882" y="28" font-size="12">Predicted</text>
</svg>