<svg xmlns="http://www.w3.org/2000/svg" width="960" height="420" viewBox="0 0 960 420">
<style>
text{font-family:Arial,Helvetica,sans-serif;fill:#202124}
.axis{stroke:#5f6368;stroke-width:1}
.grid{stroke:#e8eaed;stroke-width:1}
.actual{fill:none;stroke:#1967d2;stroke-width:2.2}
.predicted{fill:none;stroke:#d93025;stroke-width:2.2;stroke-dasharray:6 4}
</style>
<text x="72" y="26" font-size="18" font-weight="700">PRCP: 2016-01-01 to 2016-12-31 actual vs ridge forecast</text>
<text x="20" y="205" font-size="12" transform="rotate(-90 20,205)">Precipitation (inches)</text>
<line class="axis" x1="72" y1="366" x2="936" y2="366"/>
<line class="axis" x1="72" y1="44" x2="72" y2="366"/>
<line class="grid" x1="72" y1="366.00" x2="936" y2="366.00"/>
<text x="62" y="370.00" text-anchor="end" font-size="11">-0.13</text>
<line class="grid" x1="72" y1="285.50" x2="936" y2="285.50"/>
<text x="62" y="289.50" text-anchor="end" font-size="11">0.33</text>
<line class="grid" x1="72" y1="205.00" x2="936" y2="205.00"/>
<text x="62" y="209.00" text-anchor="end" font-size="11">0.78</text>
<line class="grid" x1="72" y1="124.50" x2="936" y2="124.50"/>
<text x="62" y="128.50" text-anchor="end" font-size="11">1.24</text>
<line class="grid" x1="72" y1="44.00" x2="936" y2="44.00"/>
<text x="62" y="48.00" text-anchor="end" font-size="11">1.70</text>
<line class="grid" x1="72.00" y1="44" x2="72.00" y2="366"/>
<text x="72.00" y="400" text-anchor="middle" font-size="11">Jan 01</text>
<line class="grid" x1="244.80" y1="44" x2="244.80" y2="366"/>
<text x="244.80" y="400" text-anchor="middle" font-size="11">Mar 14</text>
<line class="grid" x1="417.60" y1="44" x2="417.60" y2="366"/>
<text x="417.60" y="400" text-anchor="middle" font-size="11">May 26</text>
<line class="grid" x1="590.40" y1="44" x2="590.40" y2="366"/>
<text x="590.40" y="400" text-anchor="middle" font-size="11">Aug 07</text>
<line class="grid" x1="763.20" y1="44" x2="763.20" y2="366"/>
<text x="763.20" y="400" text-anchor="middle" font-size="11">Oct 19</text>
<line class="grid" x1="936.00" y1="44" x2="936.00" y2="366"/>
<text x="936.00" y="400" text-anchor="middle" font-size="11">Dec 31</text>
<polyline class="actual" points="72.00,343.79 74.37,343.79 76.73,343.79 79.10,343.79 81.47,343.79 83.84,343.79 86.20,343.79 88.57,343.79 90.94,340.26 93.30,66.21 95.67,343.79 98.04,329.65 100.41,343.79 102.77,343.79 105.14,343.79 107.51,204.12 109.87,334.95 112.24,319.04 114.61,343.79 116.98,343.79 119.34,343.79 121.71,343.79 124.08,294.29 126.44,343.79 128.81,343.79 131.18,343.79 133.55,343.79 135.91,343.79 138.28,343.79 140.65,343.79 143.01,343.79 145.38,343.79 147.75,343.79 150.12,317.27 152.48,343.79 154.85,165.22 157.22,343.79 159.58,343.79 161.95,276.61 164.32,342.03 166.68,342.03 169.05,343.79 171.42,343.79 173.79,343.79 176.15,343.79 178.52,290.75 180.89,228.87 183.25,343.79 185.62,343.79 187.99,343.79 190.36,342.03 192.72,343.79 195.09,343.79 197.46,343.79 199.82,258.93 202.19,283.68 204.56,343.79 206.93,343.79 209.29,343.79 211.66,343.79 214.03,343.79 216.39,243.01 218.76,343.79 221.13,340.26 223.50,343.79 225.86,343.79 228.23,343.79 230.60,343.79 232.96,343.79 235.33,244.78 237.70,327.88 240.07,343.79 242.43,343.79 244.80,313.74 247.17,156.38 249.53,333.18 251.90,324.34 254.27,343.79 256.64,343.79 259.00,340.26 261.37,266.00 263.74,343.79 266.10,343.79 268.47,343.79 270.84,317.27 273.21,343.79 275.57,343.79 277.94,248.32 280.31,343.79 282.67,343.79 285.04,343.79 287.41,340.26 289.78,313.74 292.14,296.06 294.51,274.84 296.88,343.79 299.24,343.79 301.61,140.47 303.98,338.49 306.35,343.79 308.71,343.79 311.08,340.26 313.45,315.50 315.81,343.79 318.18,343.79 320.55,343.79 322.92,343.79 325.28,343.79 327.65,343.79 330.02,342.03 332.38,343.79 334.75,343.79 337.12,320.81 339.48,320.81 341.85,343.79 344.22,343.79 346.59,292.52 348.95,343.79 351.32,343.79 353.69,343.79 356.05,343.79 358.42,343.79 360.79,331.42 363.16,264.23 365.52,331.42 367.89,281.91 370.26,326.11 372.62,326.11 374.99,342.03 377.36,340.26 379.73,343.79 382.09,343.79 384.46,343.79 386.83,343.79 389.19,322.58 391.56,343.79 393.93,343.79 396.30,343.79 398.66,343.79 401.03,343.79 403.40,342.03 405.76,343.79 408.13,343.79 410.50,343.79 412.87,329.65 415.23,287.22 417.60,343.79 419.97,343.79 422.33,343.79 424.70,343.79 427.07,299.59 429.44,333.18 431.80,343.79 434.17,343.79 436.54,343.79 438.90,343.79 441.27,343.79 443.64,207.65 446.01,334.95 448.37,322.58 450.74,342.03 453.11,343.79 455.47,343.79 457.84,338.49 460.21,343.79 462.58,343.79 464.94,343.79 467.31,343.79 469.68,343.79 472.04,327.88 474.41,343.79 476.78,343.79 479.15,281.91 481.51,343.79 483.88,342.03 486.25,343.79 488.61,343.79 490.98,343.79 493.35,343.79 495.72,326.11 498.08,319.04 500.45,342.03 502.82,343.79 505.18,303.13 507.55,343.79 509.92,343.79 512.28,334.95 514.65,331.42 517.02,343.79 519.39,343.79 521.75,343.79 524.12,313.74 526.49,342.03 528.85,343.79 531.22,343.79 533.59,343.79 535.96,338.49 538.32,343.79 540.69,343.79 543.06,343.79 545.42,333.18 547.79,343.79 550.16,343.79 552.53,343.79 554.89,343.79 557.26,343.79 559.63,343.79 561.99,336.72 564.36,343.79 566.73,343.79 569.10,343.79 571.46,336.72 573.83,290.75 576.20,333.18 578.56,343.79 580.93,342.03 583.30,343.79 585.67,343.79 588.03,343.79 590.40,343.79 592.77,343.79 595.13,343.79 597.50,343.79 599.87,128.09 602.24,343.79 604.60,329.65 606.97,290.75 609.34,343.79 611.70,343.79 614.07,331.42 616.44,343.79 618.81,343.79 621.17,343.79 623.54,343.79 625.91,264.23 628.27,343.79 630.64,343.79 633.01,343.79 635.38,343.79 637.74,343.79 640.11,343.79 642.48,343.79 644.84,343.79 647.21,343.79 649.58,343.79 651.95,342.03 654.31,343.79 656.68,343.79 659.05,343.79 661.41,304.90 663.78,319.04 666.15,326.11 668.52,336.72 670.88,343.79 673.25,343.79 675.62,331.42 677.98,343.79 680.35,343.79 682.72,343.79 685.08,343.79 687.45,343.79 689.82,343.79 692.19,324.34 694.55,276.61 696.92,343.79 699.29,343.79 701.65,343.79 704.02,225.33 706.39,343.79 708.76,343.79 711.12,308.43 713.49,329.65 715.86,343.79 718.22,343.79 720.59,281.91 722.96,266.00 725.33,338.49 727.69,342.03 730.06,343.79 732.43,343.79 734.79,343.79 737.16,343.79 739.53,324.34 741.90,71.51 744.26,343.79 746.63,343.79 749.00,343.79 751.36,343.79 753.73,343.79 756.10,343.79 758.47,343.79 760.83,317.27 763.20,343.79 765.57,343.79 767.93,315.50 770.30,67.97 772.67,304.90 775.04,343.79 777.40,343.79 779.77,343.79 782.14,343.79 784.50,96.26 786.87,301.36 789.24,338.49 791.61,331.42 793.97,343.79 796.34,343.79 798.71,334.95 801.07,340.26 803.44,343.79 805.81,334.95 808.18,342.03 810.54,343.79 812.91,343.79 815.28,343.79 817.64,343.79 820.01,343.79 822.38,343.79 824.75,343.79 827.11,343.79 829.48,106.87 831.85,343.79 834.21,343.79 836.58,343.79 838.95,326.11 841.32,343.79 843.68,343.79 846.05,343.79 848.42,343.79 850.78,327.88 853.15,326.11 855.52,343.79 857.88,343.79 860.25,343.79 862.62,264.23 864.99,71.51 867.35,343.79 869.72,343.79 872.09,343.79 874.45,343.79 876.82,319.04 879.19,329.65 881.56,338.49 883.92,343.79 886.29,343.79 888.66,343.79 891.02,297.82 893.39,320.81 895.76,343.79 898.13,343.79 900.49,343.79 902.86,326.11 905.23,260.69 907.59,343.79 909.96,343.79 912.33,343.79 914.70,343.79 917.06,340.26 919.43,343.79 921.80,283.68 924.16,343.79 926.53,340.26 928.90,343.79 931.27,343.79 933.63,112.18 936.00,343.79"/>
<polyline class="predicted" points="72.00,319.52 74.37,319.64 76.73,314.34 79.10,319.42 81.47,327.24 83.84,328.34 86.20,312.65 88.57,323.40 90.94,308.80 93.30,310.26 95.67,285.04 98.04,327.18 100.41,325.84 102.77,330.49 105.14,330.73 107.51,320.27 109.87,300.69 112.24,319.00 114.61,325.50 116.98,328.56 119.34,325.59 121.71,333.07 124.08,324.91 126.44,319.97 128.81,322.92 131.18,321.29 133.55,306.63 135.91,326.14 138.28,318.01 140.65,312.65 143.01,312.77 145.38,311.70 147.75,317.40 150.12,316.07 152.48,296.54 154.85,313.05 157.22,311.05 159.58,327.79 161.95,322.51 164.32,337.68 166.68,336.48 169.05,323.87 171.42,334.59 173.79,327.31 176.15,343.79 178.52,343.79 180.89,317.02 183.25,302.66 185.62,319.88 187.99,325.17 190.36,319.57 192.72,306.79 195.09,319.90 197.46,319.04 199.82,322.71 202.19,296.85 204.56,320.15 206.93,336.70 209.29,329.05 211.66,318.65 214.03,319.71 216.39,323.59 218.76,329.01 221.13,337.98 223.50,334.21 225.86,338.74 228.23,331.05 230.60,326.83 232.96,318.72 235.33,300.01 237.70,310.95 240.07,324.95 242.43,318.94 244.80,319.39 247.17,325.75 249.53,319.78 251.90,327.71 254.27,322.68 256.64,335.27 259.00,340.76 261.37,337.88 263.74,324.71 266.10,325.75 268.47,326.02 270.84,337.96 273.21,326.50 275.57,335.05 277.94,329.58 280.31,321.30 282.67,334.99 285.04,327.46 287.41,311.81 289.78,315.84 292.14,329.84 294.51,337.32 296.88,334.30 299.24,343.79 301.61,330.08 303.98,314.17 306.35,337.98 308.71,334.78 311.08,330.21 313.45,318.85 315.81,336.67 318.18,338.03 320.55,335.40 322.92,334.12 325.28,331.67 327.65,327.85 330.02,321.21 332.38,325.92 334.75,326.34 337.12,315.62 339.48,312.25 341.85,325.77 344.22,333.58 346.59,325.76 348.95,337.19 351.32,328.96 353.69,326.68 356.05,331.32 358.42,328.13 360.79,325.54 363.16,321.61 365.52,320.54 367.89,322.24 370.26,323.68 372.62,331.55 374.99,324.10 377.36,321.95 379.73,325.13 382.09,327.40 384.46,322.60 386.83,322.53 389.19,317.42 391.56,314.71 393.93,321.73 396.30,327.94 398.66,321.17 401.03,323.53 403.40,321.12 405.76,323.13 408.13,320.23 410.50,317.27 412.87,322.69 415.23,317.77 417.60,314.84 419.97,312.86 422.33,315.40 424.70,309.64 427.07,316.51 429.44,318.51 431.80,307.07 434.17,321.01 436.54,320.66 438.90,319.63 441.27,313.64 443.64,311.27 446.01,305.15 448.37,312.97 450.74,318.10 453.11,324.57 455.47,322.90 457.84,323.00 460.21,306.71 462.58,319.19 464.94,318.18 467.31,312.83 469.68,315.60 472.04,319.39 474.41,318.80 476.78,317.04 479.15,315.01 481.51,309.09 483.88,320.74 486.25,322.05 488.61,320.20 490.98,322.21 493.35,320.48 495.72,312.87 498.08,312.67 500.45,310.82 502.82,316.46 505.18,315.85 507.55,315.34 509.92,319.90 512.28,317.91 514.65,318.67 517.02,313.43 519.39,316.90 521.75,316.83 524.12,320.46 526.49,318.92 528.85,319.87 531.22,321.49 533.59,314.14 535.96,312.70 538.32,311.01 540.69,313.19 543.06,312.01 545.42,315.53 547.79,315.44 550.16,330.13 552.53,322.46 554.89,312.68 557.26,313.93 559.63,319.33 561.99,320.89 564.36,312.81 566.73,320.85 569.10,322.14 571.46,316.56 573.83,321.70 576.20,318.26 578.56,320.89 580.93,322.41 583.30,329.51 585.67,326.56 588.03,324.27 590.40,315.43 592.77,322.81 595.13,323.33 597.50,327.15 599.87,318.37 602.24,305.52 604.60,318.12 606.97,325.04 609.34,320.59 611.70,324.04 614.07,329.57 616.44,311.85 618.81,329.55 621.17,324.77 623.54,327.10 625.91,330.57 628.27,323.37 630.64,337.30 633.01,330.80 635.38,325.28 637.74,321.27 640.11,328.46 642.48,326.42 644.84,323.58 647.21,334.18 649.58,325.81 651.95,321.35 654.31,331.71 656.68,335.67 659.05,337.95 661.41,334.28 663.78,326.05 666.15,322.68 668.52,322.92 670.88,327.80 673.25,325.37 675.62,321.07 677.98,342.51 680.35,337.83 682.72,326.99 685.08,339.07 687.45,339.14 689.82,336.31 692.19,318.45 694.55,316.87 696.92,322.56 699.29,327.40 701.65,333.13 704.02,328.44 706.39,331.29 708.76,343.79 711.12,343.61 713.49,325.66 715.86,327.11 718.22,333.95 720.59,330.26 722.96,324.08 725.33,326.89 727.69,329.14 730.06,327.86 732.43,342.67 734.79,343.31 737.16,335.55 739.53,333.60 741.90,321.88 744.26,321.46 746.63,341.92 749.00,336.47 751.36,329.71 753.73,335.67 756.10,342.60 758.47,322.63 760.83,319.58 763.20,321.55 765.57,316.42 767.93,330.19 770.30,317.28 772.67,303.56 775.04,337.60 777.40,329.79 779.77,340.02 782.14,342.30 784.50,343.79 786.87,300.33 789.24,329.01 791.61,322.68 793.97,334.52 796.34,339.72 798.71,323.08 801.07,312.52 803.44,324.52 805.81,335.12 808.18,321.98 810.54,333.13 812.91,342.35 815.28,322.76 817.64,327.72 820.01,315.70 822.38,327.34 824.75,315.78 827.11,323.49 829.48,319.47 831.85,299.57 834.21,321.45 836.58,325.76 838.95,329.84 841.32,325.44 843.68,330.81 846.05,322.74 848.42,323.32 850.78,321.85 853.15,315.02 855.52,326.40 857.88,320.69 860.25,322.84 862.62,319.82 864.99,308.27 867.35,293.83 869.72,321.38 872.09,320.24 874.45,321.26 876.82,325.95 879.19,321.57 881.56,309.32 883.92,317.94 886.29,318.83 888.66,328.42 891.02,332.37 893.39,307.35 895.76,313.94 898.13,316.02 900.49,328.94 902.86,338.71 905.23,318.07 907.59,295.85 909.96,325.98 912.33,328.21 914.70,316.53 917.06,311.97 919.43,314.53 921.80,310.18 924.16,309.22 926.53,324.63 928.90,293.79 931.27,312.57 933.63,325.67 936.00,312.44"/>
<line x1="735" y1="24" x2="775" y2="24" class="actual"/>
<text x="782" y="28" font-size="12">Actual</text>
<line x1="835" y1="24" x2="875" y2="24" class="predicted"/>
<text x="882" y="28" font-size="12">Predicted</text>
</svg>